<svg width="866" height="278" viewBox="0 0 866 278" fill="none" xmlns="http://www.w3.org/2000/svg">
<path d="M0.53125 195.125L4.1875 0.5H19.375L111.344 175.156V152.938C111.344 96.3125 112.375 45.4062 114.438 0.21875L130.469 3.3125C132.531 44 134.219 111.031 135.531 204.406C131.594 206.094 127.469 206.938 123.156 206.938C116.781 206.938 110.125 205.062 103.188 201.312C91.75 183.688 77.5 157.906 60.4375 123.969C43.5625 90.0312 31.5625 66.7812 24.4375 54.2188C24.625 66.9688 24.7188 90.2188 24.7188 123.969C24.9062 157.719 25.2812 183.312 25.8438 200.75C24.1562 206.562 20.875 209.469 16 209.469C12.625 209.469 9.34375 208.062 6.15625 205.25C3.15625 202.438 1.28125 199.062 0.53125 195.125ZM158.594 143.094C158.594 135.594 159.344 127.25 160.844 118.062C162.531 108.875 164.969 99.2188 168.156 89.0938C171.344 78.9688 176.125 70.5312 182.5 63.7812C188.875 57.0312 196.281 53.6562 204.719 53.6562C222.719 53.6562 237.156 61.8125 248.031 78.125C258.906 94.25 264.344 112.25 264.344 132.125C264.344 140.562 263.406 149 261.531 157.438C259.844 165.688 257.125 173.844 253.375 181.906C249.625 189.969 244.188 196.719 237.062 202.156C230.125 207.406 221.969 210.406 212.594 211.156C195.344 208.906 182.031 201.594 172.656 189.219C163.281 176.656 158.594 161.281 158.594 143.094ZM206.406 68.2812C199.844 69.0312 194.312 75.0312 189.812 86.2812C185.312 97.5312 182.406 108.5 181.094 119.188C179.781 129.688 179.125 138.969 179.125 147.031C179.125 157.531 182.312 167.281 188.688 176.281C195.25 185.094 202.562 189.5 210.625 189.5C216.438 189.5 221.688 187.25 226.375 182.75C231.062 178.25 234.719 172.719 237.344 166.156C240.156 159.406 242.219 152.656 243.531 145.906C245.031 139.156 245.781 133.156 245.781 127.906C245.781 112.531 242.312 99.125 235.375 87.6875C228.438 76.25 218.781 69.7812 206.406 68.2812ZM363.906 66.875L367 79.5312C361.938 79.9062 354.156 80.9375 343.656 82.625C333.156 84.125 325.281 85.0625 320.031 85.4375C320.969 92 321.531 100.625 321.719 111.312C321.906 122 322.094 131.281 322.281 139.156C322.656 146.844 323.5 154.625 324.812 162.5C326.312 170.188 329.219 176.094 333.531 180.219C338.031 184.344 344.031 186.406 351.531 186.406C357.156 186.406 364.188 185.094 372.625 182.469C376.188 189.406 378.812 194.469 380.5 197.656C365.688 202.906 350.688 205.531 335.5 205.531C329.875 205.531 325 203.844 320.875 200.469C316.75 197.094 313.562 192.875 311.312 187.812C309.062 182.75 307.188 176.375 305.688 168.688C304.375 160.812 303.531 153.406 303.156 146.469C302.781 139.531 302.594 131.562 302.594 122.562C302.594 117.688 302.594 110.938 302.594 102.312C302.781 93.6875 302.875 87.7812 302.875 84.5938C301 84.7812 296.594 84.9688 289.656 85.1562C282.719 85.1562 278.688 85.1562 277.562 85.1562C276.25 72.5938 275.594 66.125 275.594 65.75C276.906 66.125 279.062 66.3125 282.062 66.3125C283.75 66.3125 286.469 66.2188 290.219 66.0312C293.969 65.6562 296.781 65.4688 298.656 65.4688C299.406 65.4688 300.344 65.5625 301.469 65.75C302.781 65.75 303.625 65.75 304 65.75C304.75 45.125 305.594 28.3438 306.531 15.4062L319.188 18.5C319.375 23 319.469 27.875 319.469 33.125C319.656 38.1875 319.75 43.9063 319.75 50.2812C319.938 56.4688 320.031 61.25 320.031 64.625C324.906 65 332.219 65.375 341.969 65.75C351.719 66.125 359.031 66.5 363.906 66.875ZM466.281 57.875L478.938 55.0625C478.938 60.6875 479.031 65.0938 479.219 68.2812C480.344 109.344 480.906 136.062 480.906 148.438C480.906 152.75 481 159.5 481.188 168.688C481.375 177.875 481.469 184.812 481.469 189.5C481.469 199.812 481.094 208.719 480.344 216.219C479.781 223.719 478.375 231.5 476.125 239.562C473.875 247.812 470.781 254.469 466.844 259.531C463.094 264.781 457.656 269.094 450.531 272.469C443.594 275.844 435.344 277.531 425.781 277.531C417.531 277.531 403 276.312 382.188 273.875C382 271.812 381.625 269.562 381.062 267.125C380.688 264.688 380.5 262.812 380.5 261.5C380.5 258.688 380.781 256.438 381.344 254.75C382.844 254.938 388.656 255.688 398.781 257C409.094 258.312 416.688 258.969 421.562 258.969C434.5 258.969 444.438 255.031 451.375 247.156C458.312 239.281 461.875 224.562 462.062 203C452.875 208.25 443.219 210.875 433.094 210.875C424.656 210.875 417.25 209.094 410.875 205.531C404.5 202.156 399.438 197.844 395.688 192.594C391.938 187.156 388.844 180.688 386.406 173.188C384.156 165.5 382.562 158.094 381.625 150.969C380.875 143.844 380.5 136.25 380.5 128.188C380.5 107.938 384.906 90.9688 393.719 77.2812C402.719 63.5938 416.312 56.75 434.5 56.75C445.188 56.75 455.688 60.0312 466 66.5938C466.188 64.7188 466.281 61.8125 466.281 57.875ZM462.906 175.719L463.75 84.875C462.625 81.5 459.062 78.875 453.062 77C447.25 74.9375 440.781 73.9062 433.656 73.9062C423.531 73.9062 415.656 78.5938 410.031 87.9688C404.406 97.1562 401.594 108.406 401.594 121.719C401.594 128.656 401.969 135.5 402.719 142.25C403.469 148.812 404.969 156.125 407.219 164.188C409.469 172.062 413.125 178.438 418.188 183.312C423.25 188.188 429.531 190.625 437.031 190.625C442.656 190.625 447.812 189.312 452.5 186.688C457.188 183.875 460.656 180.219 462.906 175.719ZM597.344 95.8438L584.969 95C581.031 84.5 574.375 79.25 565 79.25C560.875 79.25 556.469 80.1875 551.781 82.0625C547.281 83.9375 543.531 85.9062 540.531 87.9688C537.531 89.8438 533.594 92.6562 528.719 96.4062C528.719 99.0312 528.625 107.562 528.438 122C528.438 136.438 528.531 152.469 528.719 170.094C529.094 187.719 529.469 197.188 529.844 198.5C528.156 204.125 524.875 206.938 520 206.938C516.625 206.938 513.344 205.625 510.156 203C507.156 200.188 505.281 196.812 504.531 192.875C508.094 132.688 511.281 87.2188 514.094 56.4688L526.75 59.2812L527.594 78.125C540.719 67.25 551.969 61.8125 561.344 61.8125C571.656 61.8125 580.281 64.1562 587.219 68.8438C594.344 73.5312 597.906 80.375 597.906 89.375C597.906 92.1875 597.719 94.3438 597.344 95.8438ZM619.281 81.5L613.656 67.1562C618.531 62.2812 624.719 58.4375 632.219 55.625C639.719 52.625 647.125 51.125 654.438 51.125C686.125 51.125 701.969 78.5 701.969 133.25C701.969 140.75 701.5 151.812 700.562 166.438C699.812 181.062 699.438 192.031 699.438 199.344C697.938 205.156 695.031 208.062 690.719 208.062C687.344 208.062 684.25 206.375 681.438 203C678.625 199.625 677.219 195.875 677.219 191.75C677.219 190.438 677.312 189.5 677.5 188.938C665.875 200.188 653.5 205.812 640.375 205.812C630.438 205.812 621.719 202.25 614.219 195.125C606.906 187.812 603.25 179 603.25 168.688C603.25 151.25 610 135.5 623.5 121.438C637.188 107.375 652.656 100.344 669.906 100.344C670.656 100.344 671.406 100.438 672.156 100.625C672.906 100.625 673.75 100.719 674.688 100.906C675.812 101.094 676.656 101.188 677.219 101.188C675.719 79.25 667 68.2812 651.062 68.2812C641.688 68.2812 631.094 72.6875 619.281 81.5ZM678.062 169.531C678.438 156.406 678.625 146.469 678.625 139.719C678.625 134.094 678.438 126.219 678.062 116.094H675.812C662.5 116.281 650.312 121.25 639.25 131C628.375 140.75 622.938 152.562 622.938 166.438C622.938 172.438 624.719 177.219 628.281 180.781C632.031 184.344 636.531 186.125 641.781 186.125C650.031 186.125 662.125 180.594 678.062 169.531ZM801.531 91.625C802.281 102.125 802.844 114.594 803.219 129.031C803.594 143.281 803.875 157.719 804.062 172.344C804.438 186.969 804.719 196.906 804.906 202.156C800.781 203.281 796.938 203.844 793.375 203.844C790.562 203.844 787.938 203.375 785.5 202.438C784.938 195.125 784.562 186.781 784.375 177.406C784.188 168.031 784.094 159.781 784.094 152.656C784.094 145.344 783.906 137.75 783.531 129.875C783.344 122 782.875 115.25 782.125 109.625C781.375 104 780.25 98.8438 778.75 94.1562C777.25 89.2812 775.094 85.5312 772.281 82.9062C769.656 80.2812 766.375 78.875 762.438 78.6875C758.5 78.6875 755.312 79.5312 752.875 81.2188C750.438 82.9062 747.812 86 745 90.5V201.875C742.188 203.375 738.812 204.125 734.875 204.125C731.875 204.125 728.5 203.656 724.75 202.719C725.312 190.906 725.688 167.656 725.875 132.969C726.062 98.2812 726.812 72.5938 728.125 55.9062L740.781 58.7188L741.625 73.0625C747.25 64.25 754.375 59.8438 763 59.8438C775.75 59.8438 786.531 65.4688 795.344 76.7188C800.781 65.4688 809.594 59.8438 821.781 59.8438C826.656 59.8438 830.875 60.4062 834.438 61.5312C854.875 67.3438 865.094 93.5 865.094 140C865.094 146.75 864.812 155.844 864.25 167.281C863.875 178.531 863.688 186.125 863.688 190.062C863.688 195.312 863.969 199.625 864.531 203C854.781 205.625 848.875 206.938 846.812 206.938C844.938 206.938 843.625 206.75 842.875 206.375C842.125 203.938 841.75 199.438 841.75 192.875C841.75 188.75 842.031 180.312 842.594 167.562C843.156 154.625 843.438 144.5 843.438 137.188C843.438 98.1875 835.75 78.5 820.375 78.125C816.812 78.3125 813.719 79.4375 811.094 81.5C808.469 83.375 805.281 86.75 801.531 91.625Z" fill="black"/>
</svg>
